<svg xmlns="http://www.w3.org/2000/svg" xmlns:xlink="http://www.w3.org/1999/xlink" width="500" zoomAndPan="magnify" viewBox="0 0 375 374.999991" height="500" preserveAspectRatio="xMidYMid meet" version="1.0"><defs><g/><clipPath id="8e0f215cc8"><path d="M 48.101562 48.101562 L 327.632812 48.101562 L 327.632812 327.632812 L 48.101562 327.632812 Z M 48.101562 48.101562 " clip-rule="nonzero"/></clipPath></defs><g clip-path="url(#8e0f215cc8)"><path fill="#202424" d="M 187.867188 327.632812 C 110.800781 327.632812 48.101562 264.933594 48.101562 187.867188 C 48.101562 110.800781 110.800781 48.101562 187.867188 48.101562 C 264.933594 48.101562 327.632812 110.800781 327.632812 187.867188 C 327.632812 264.933594 264.933594 327.632812 187.867188 327.632812 Z M 187.867188 50.578125 C 112.167969 50.578125 50.578125 112.167969 50.578125 187.867188 C 50.578125 263.566406 112.167969 325.152344 187.867188 325.152344 C 263.566406 325.152344 325.152344 263.566406 325.152344 187.867188 C 325.152344 112.167969 263.566406 50.578125 187.867188 50.578125 Z M 187.867188 50.578125 " fill-opacity="1" fill-rule="nonzero"/></g><g fill="#202424" fill-opacity="1"><g transform="translate(86.70984, 236.8704)"><g><path d="M 91.96875 -25.183594 C 91.96875 -26.757812 91.351562 -27.714844 89.917969 -27.988281 C 88.34375 -28.261719 87.109375 -27.644531 85.949219 -25.457031 C 80.953125 -15.054688 71.78125 -9.101562 59.671875 -9.101562 C 40.714844 -9.101562 26.824219 -24.15625 26.824219 -51.664062 C 26.824219 -75.339844 38.183594 -90.667969 54.402344 -90.667969 C 66.445312 -90.667969 76.160156 -84.988281 83.484375 -68.703125 C 84.511719 -66.445312 86.359375 -65.625 88.546875 -66.035156 C 90.738281 -66.445312 91.96875 -68.359375 91.285156 -70.480469 L 84.101562 -94.023438 C 83.347656 -96.554688 82.320312 -97.511719 80.609375 -97.511719 C 77.050781 -97.511719 76.984375 -92.789062 73.492188 -92.789062 C 70.550781 -92.789062 65.351562 -98.195312 51.664062 -98.195312 C 25.25 -98.195312 5.472656 -76.640625 5.472656 -47.351562 C 5.472656 -18.132812 23.882812 2.601562 53.582031 2.601562 C 77.53125 2.601562 91.96875 -12.316406 91.96875 -25.183594 Z M 91.96875 -25.183594 "/></g></g></g><g fill="#202424" fill-opacity="1"><g transform="translate(183.251031, 236.8704)"><g><path d="M 91.832031 -1.847656 L 91.832031 -32.640625 C 91.832031 -35.035156 92.996094 -35.992188 95.664062 -36.816406 L 98.265625 -37.5 C 100.386719 -38.253906 101.277344 -39.210938 101.277344 -40.785156 C 101.277344 -42.632812 99.90625 -43.792969 96.894531 -43.792969 L 65.214844 -43.792969 C 62.269531 -43.792969 60.902344 -42.632812 60.902344 -40.714844 C 60.902344 -39.003906 62.203125 -37.976562 64.460938 -37.363281 L 68.703125 -36.472656 C 71.917969 -35.789062 72.742188 -34.832031 72.742188 -32.640625 L 72.742188 -16.421875 C 72.742188 -10.742188 67.8125 -7.320312 59.121094 -7.320312 C 40.578125 -7.320312 26.824219 -23.0625 26.824219 -51.664062 C 26.824219 -75.339844 38.867188 -90.667969 56.25 -90.667969 C 68.976562 -90.667969 79.515625 -85.195312 86.972656 -68.703125 C 88 -66.445312 89.847656 -65.625 92.039062 -66.035156 C 94.160156 -66.445312 95.460938 -68.359375 94.773438 -70.480469 L 87.589844 -94.023438 C 86.835938 -96.554688 85.742188 -97.511719 84.101562 -97.511719 C 80.542969 -97.511719 80.472656 -92.789062 76.984375 -92.789062 C 73.765625 -92.789062 68.222656 -98.195312 53.445312 -98.195312 C 26.003906 -98.195312 5.472656 -76.847656 5.472656 -47.765625 C 5.472656 -17.929688 23.335938 2.53125 52.964844 2.53125 C 68.359375 2.53125 74.109375 -4.722656 78.007812 -4.722656 C 81.292969 -4.722656 83.210938 2.601562 87.863281 2.601562 C 90.53125 2.601562 91.832031 1.230469 91.832031 -1.847656 Z M 91.832031 -1.847656 "/></g></g></g></svg>